<?xml version="1.0" encoding="UTF-8" standalone="no"?>
<!-- Generator: Adobe Illustrator 18.0.0, SVG Export Plug-In . SVG Version: 6.00 Build 0)  -->

<svg
   xmlns:dc="http://purl.org/dc/elements/1.1/"
   xmlns:cc="http://creativecommons.org/ns#"
   xmlns:rdf="http://www.w3.org/1999/02/22-rdf-syntax-ns#"
   xmlns:svg="http://www.w3.org/2000/svg"
   xmlns="http://www.w3.org/2000/svg"
   xmlns:sodipodi="http://sodipodi.sourceforge.net/DTD/sodipodi-0.dtd"
   xmlns:inkscape="http://www.inkscape.org/namespaces/inkscape"
   version="1.1"
   id="Calque_1"
   x="0px"
   y="0px"
   viewBox="0 0 201.00391 141.59085"
   enable-background="new 0 0 640 280"
   xml:space="preserve"
   sodipodi:docname="vertx-icon0.svg"
   inkscape:version="0.92.3 (2405546, 2018-03-11)"
   width="201.00391"
   height="141.59085"><metadata
   id="metadata23"><rdf:RDF><cc:Work
       rdf:about=""><dc:format>image/svg+xml</dc:format><dc:type
         rdf:resource="http://purl.org/dc/dcmitype/StillImage" /><dc:title></dc:title></cc:Work></rdf:RDF></metadata><defs
   id="defs21" /><sodipodi:namedview
   pagecolor="#ffffff"
   bordercolor="#666666"
   borderopacity="1"
   objecttolerance="10"
   gridtolerance="10"
   guidetolerance="10"
   inkscape:pageopacity="0"
   inkscape:pageshadow="2"
   inkscape:window-width="1853"
   inkscape:window-height="1025"
   id="namedview19"
   showgrid="false"
   inkscape:zoom="2.33125"
   inkscape:cx="18.41124"
   inkscape:cy="34.902914"
   inkscape:window-x="67"
   inkscape:window-y="27"
   inkscape:window-maximized="1"
   inkscape:current-layer="g10"
   fit-margin-top="20"
   fit-margin-left="20"
   fit-margin-right="20"
   fit-margin-bottom="20" />






<g
   transform="matrix(3.7795208,0,0,3.7795208,-246.69811,-428.7954)"
   id="g10"><path
     style="fill:#022b37;fill-opacity:1;fill-rule:evenodd;stroke-width:3.77952075"
     d="m 20,20 39.552734,89.47656 h 8.611328 A 20.499999,20.499999 0 0 1 68.150391,109.0918 20.499999,20.499999 0 0 1 81.273438,89.966797 L 112.87109,20.558594 H 90.578125 L 66.464844,73.185547 43.337891,20 Z"
     transform="matrix(0.26458381,0,0,0.26458381,65.272325,113.45232)"
     id="path4"
     inkscape:connector-curvature="0" /><path
     style="fill:#623c94;fill-opacity:1;fill-rule:evenodd;stroke-width:3.77952075"
     d="m 90.355469,20.136719 32.095701,44.677734 -20.51758,28.667969 a 20.499999,20.499999 0 0 1 7.21485,15.574218 h 8.96484 l 62.89063,-88.916015 h -27.75977 l -17.34961,25.15625 -17.34765,-25.160156 z m 63.314451,55.267578 -13.01172,18.652344 9.97266,14.746089 h 27.32617 z"
     transform="matrix(0.26458381,0,0,0.26458381,65.272325,113.45232)"
     id="path6"
     inkscape:connector-curvature="0" /><circle
     style="fill:#623c94;fill-opacity:1;stroke:none;stroke-width:1.58755887;stroke-linejoin:round;stroke-miterlimit:4;stroke-dasharray:none;stroke-opacity:1"
     cx="88.727997"
     cy="142.31599"
     id="circle8-5-6"
     r="3.3072975" /></g></svg>